<?xml version="1.0" encoding="UTF-8"?>
<svg version="1.1" xmlns="http://www.w3.org/2000/svg" width="444" height="340">
<path d="M0 0 C13.82681283 5.88919806 19.91715439 19.23535654 26.7109375 31.73022461 C28.0371476 34.15198084 28.0371476 34.15198084 30.01953125 36.859375 C33.13599445 41.80145866 35.18898627 47.15681702 37.375 52.5625 C37.86105713 53.76398682 38.34711426 54.96547363 38.84790039 56.20336914 C45.80998296 73.74064917 53.56749465 94.79694789 52.875 113.9375 C53.17044005 118.57807059 55.19364496 120.55180472 58.4597168 123.56567383 C59.70861301 124.65889 60.96416781 125.74454003 62.22583008 126.82299805 C66.81260246 130.7664369 70.51671712 134.8527311 74.0625 139.75 C74.54557617 140.41717041 75.02865234 141.08434082 75.52636719 141.77172852 C76.51377299 143.14437963 77.49845009 144.51899749 78.48046875 145.89550781 C81.10240666 149.52679072 83.83437062 153.07320858 86.5625 156.625 C87.10567871 157.33462891 87.64885742 158.04425781 88.20849609 158.77539062 C91.67044982 163.29161469 95.16599168 167.78010398 98.6875 172.25 C100.01637029 173.93823968 101.34519685 175.62651362 102.67382812 177.31494141 C103.57567289 178.4608421 104.47803605 179.60633497 105.38085938 180.75146484 C106.73787537 182.47644463 108.08838719 184.20633532 109.4375 185.9375 C110.61119141 187.43603516 110.61119141 187.43603516 111.80859375 188.96484375 C120.77098378 201.37799358 121.34798543 212.78348641 119 227.75 C117.33136118 235.23569916 114.22868788 239.54548839 109 245 C108.18273437 245.95390625 107.36546875 246.9078125 106.5234375 247.890625 C96.99844693 258.961463 85.54893096 267.59779585 73 275 C72.38044434 275.40234863 71.76088867 275.80469727 71.12255859 276.21923828 C53.23078728 287.80961092 32.91346551 293.31236889 12.7141571 299.52755737 C7.67704211 301.09284332 2.83057469 302.82739311 -2.02734375 304.87890625 C-8.65038385 307.50937174 -14.92973407 307.84121263 -22 308 C-23.9644062 308.07916816 -25.92881189 308.15835109 -27.89318848 308.23825073 C-32.88429354 308.43016443 -37.87714209 308.55533974 -42.87060547 308.66699219 C-43.62796997 308.68400177 -44.38533447 308.70101135 -45.16564941 308.71853638 C-46.681502 308.7523872 -48.19737138 308.78549509 -49.71325684 308.81784058 C-53.85074551 308.91513727 -57.95521123 309.11797134 -62.08203125 309.44921875 C-83.90546172 310.85532812 -105.34229806 303.91905931 -126.31768799 298.66772461 C-130.08040737 297.73104748 -133.85033861 296.82553426 -137.62109375 295.921875 C-144.10162934 294.35700331 -150.55396326 292.70063766 -157 291 C-158.38010254 290.64808594 -158.38010254 290.64808594 -159.78808594 290.2890625 C-177.68190946 285.68797823 -192.68606773 277.73518207 -207 266 C-207.5887793 265.53787109 -208.17755859 265.07574219 -208.78417969 264.59960938 C-218.98136654 256.58265567 -226.21910091 248.02303431 -233 237 C-233.65097656 235.97777344 -234.30195313 234.95554688 -234.97265625 233.90234375 C-241.22776668 223.86163458 -241.51090592 212.5219442 -239.45703125 200.9375 C-237.19182403 194.13124357 -233.26338314 187.90797724 -229.7121582 181.703125 C-227.24326758 177.36831316 -225.10402133 173.10739894 -223.3125 168.4375 C-218.436412 156.23890184 -207.06520744 145.23310202 -195 140 C-193.30296316 139.50146396 -191.59436921 139.04002016 -189.875 138.625 C-185.38166275 137.33735709 -183.63426701 135.95140052 -181 132 C-180.09757568 131.2766748 -179.19515137 130.55334961 -178.26538086 129.80810547 C-166.6036459 120.26706629 -161.12148713 106.70593089 -157.59646606 92.51000977 C-156.46103772 87.96976872 -155.19713266 83.46581514 -153.9296875 78.9609375 C-153.68374344 78.08318665 -153.43779938 77.20543579 -153.18440247 76.30108643 C-150.38909844 66.53638174 -146.31304824 57.6523257 -141.47558594 48.74121094 C-139.80976403 45.6465967 -138.21928327 42.51881746 -136.6328125 39.3828125 C-121.81725482 10.27241827 -121.81725482 10.27241827 -115 8 C-109.76496164 7.60490277 -106.40071276 8.06619149 -102 11 C-97.39887806 16.38281194 -96.66244578 22.23696957 -95.4921875 29.08203125 C-95.28063019 30.25078293 -95.06907288 31.41953461 -94.85110474 32.623703 C-94.17917094 36.35107524 -93.52656724 40.08151906 -92.875 43.8125 C-92.21206718 47.53191469 -91.54521798 51.25060872 -90.87747192 54.96916199 C-90.46413722 57.27913649 -90.05434074 59.58974784 -89.64865112 61.90107727 C-88.01528515 72.83484084 -88.01528515 72.83484084 -84.44921875 83.19140625 C-81.92628542 88.69295691 -82.1523117 94.99235403 -81.8125 100.9375 C-81.73064453 102.19369141 -81.64878906 103.44988281 -81.56445312 104.74414062 C-81.36505814 107.8288983 -81.17726668 110.91390488 -81 114 C-79.66352417 113.76228882 -79.66352417 113.76228882 -78.30004883 113.51977539 C-73.76646007 112.80571084 -69.26819913 112.6327639 -64.6875 112.4375 C-63.80771484 112.39431641 -62.92792969 112.35113281 -62.02148438 112.30664062 C-53.34814009 111.91993101 -44.6796636 111.95964139 -36 112 C-32.56606406 89.19254071 -29.41006705 66.41490112 -27.29394531 43.44311523 C-27.22026733 42.66400284 -27.14658936 41.88489044 -27.07067871 41.08216858 C-26.93581879 39.64856132 -26.80613362 38.21445142 -26.68322754 36.7797699 C-25.86726912 28.10656174 -23.31924504 20.92607997 -19.3125 13.25 C-18.69858398 11.99509766 -18.69858398 11.99509766 -18.07226562 10.71484375 C-14.11546231 3.09298299 -9.16456522 -1.3092236 0 0 Z " fill="#010101" transform="translate(273,18)"/>
<path d="M0 0 C0.9384375 0.02964844 1.876875 0.05929688 2.84375 0.08984375 C3.9678125 0.14269531 5.091875 0.19554687 6.25 0.25 C7.7395629 0.29367128 9.22914804 0.33658801 10.71875 0.37890625 C12.312571 0.43822638 13.90632302 0.49942914 15.5 0.5625 C16.63453613 0.59585449 16.63453613 0.59585449 17.79199219 0.62988281 C22.92269324 0.87999604 26.68178841 1.85905234 31.25 4.25 C32.63576923 5.87332967 33.97641268 7.53724465 35.25 9.25 C35.8996875 9.50394531 36.549375 9.75789062 37.21875 10.01953125 C40.23561429 11.84705481 40.50765941 14.06855423 41.5625 17.375 C43.52131096 22.88643705 45.72842827 26.44529746 49.7421875 30.6328125 C53.85372601 35.04259732 54.204717 41.52318357 55.25 47.25 C55.91 47.25 56.57 47.25 57.25 47.25 C59.29538889 54.20432222 59.83169634 61.02875787 60.25 68.25 C59.59 68.25 58.93 68.25 58.25 68.25 C58.023125 68.95125 57.79625 69.6525 57.5625 70.375 C55.96529523 73.87363901 53.74211871 76.33239761 51.25 79.25 C50.80994629 80.07556396 50.36989258 80.90112793 49.91650391 81.75170898 C47.9176105 84.74829209 46.24710017 85.66318785 43.0234375 87.22265625 C41.99089844 87.72990234 40.95835937 88.23714844 39.89453125 88.75976562 C38.27611328 89.52836914 38.27611328 89.52836914 36.625 90.3125 C35.56925781 90.82876953 34.51351562 91.34503906 33.42578125 91.87695312 C30.37820489 93.35920061 27.31780799 94.810172 24.25 96.25 C23.08041748 96.81013794 23.08041748 96.81013794 21.88720703 97.3815918 C6.73595958 104.43181761 -9.93088618 108.32733599 -26.6171875 108.23388672 C-28.73720895 108.24990336 -30.82381603 108.37613144 -32.9375 108.53515625 C-39.08088343 108.8703607 -43.78056456 108.95348625 -49 105.4375 C-53.00234235 101.75624108 -54.03065664 98.0903743 -55.078125 92.8671875 C-55.7616637 90.20456581 -56.50148806 88.94235823 -58.25 86.875 C-63.81389358 79.86550265 -64.62151477 68.90799924 -63.75 60.25 C-63.21882386 57.20822208 -62.55624168 54.2302148 -61.75 51.25 C-61.09 51.25 -60.43 51.25 -59.75 51.25 C-59.8325 50.05375 -59.915 48.8575 -60 47.625 C-60.01588024 43.10707257 -58.39715607 40.90930398 -55.75 37.25 C-55.4921875 36.15816406 -55.234375 35.06632812 -54.96875 33.94140625 C-53.54819231 29.63875556 -51.36351115 27.25160761 -48.125 24.25 C-47.58593018 23.73381104 -47.04686035 23.21762207 -46.49145508 22.68579102 C-44.92326425 21.19342377 -43.33827042 19.72092844 -41.75 18.25 C-40.98300781 17.51652344 -40.21601563 16.78304687 -39.42578125 16.02734375 C-32.75687812 9.85631551 -25.17122815 7.65156644 -16.62304688 5.14453125 C-13.39206277 4.16995967 -10.57210603 3.15877232 -7.55078125 1.609375 C-4.67874902 0.21541793 -3.14347941 -0.10272809 0 0 Z " fill="#F3EFE9" transform="translate(284.75,170.75)"/>
<path d="M0 0 C2.7109375 2.4765625 2.7109375 2.4765625 5 5 C5.72703125 5.78761719 6.4540625 6.57523438 7.203125 7.38671875 C7.87859375 8.14597656 8.5540625 8.90523437 9.25 9.6875 C9.93578125 10.45449219 10.6215625 11.22148437 11.328125 12.01171875 C14.18994694 15.41514717 14.09518082 17.62168215 14 22 C14.66 22 15.32 22 16 22 C16.01417969 22.58007812 16.02835937 23.16015625 16.04296875 23.7578125 C16.41475722 29.84710475 17.86570153 32.37352314 22 37 C27.68831547 47.19734602 26.07084993 59.49903165 24.25 70.5 C24.07984375 71.65242188 23.9096875 72.80484375 23.734375 73.9921875 C22.20446403 83.64412585 22.20446403 83.64412585 19 87 C4.23214478 95.59207831 -12.96892407 97.50987174 -29.42431641 93.80444336 C-44.58000834 89.75615162 -59.14775152 80.1455525 -70 69 C-70.87011719 68.14148438 -71.74023438 67.28296875 -72.63671875 66.3984375 C-75.11017146 63.95026095 -77.55772862 61.4792133 -80 59 C-80.88429688 58.21625 -81.76859375 57.4325 -82.6796875 56.625 C-88.53896409 49.99632346 -88.2556201 38.46015969 -88.3125 29.9375 C-88.31805908 29.23592773 -88.32361816 28.53435547 -88.3293457 27.81152344 C-88.24868871 22.06764274 -87.18492722 17.77739083 -84 13 C-83.34 13 -82.68 13 -82 13 C-81.77441406 12.46375 -81.54882812 11.9275 -81.31640625 11.375 C-77.17956943 3.91150806 -70.20512193 -3.41779734 -62.16796875 -6.44921875 C-43.52901629 -11.18452019 -16.1964418 -11.48800283 0 0 Z " fill="#F2EEE8" transform="translate(160,188)"/>
<path d="M0 0 C9.89311859 0.34114202 9.89311859 0.34114202 13.625 2.5625 C16.86115011 8.29931155 16.14851459 16.02698711 16.1328125 22.46875 C16.13424759 23.78836731 16.13424759 23.78836731 16.13571167 25.13464355 C16.13638822 26.98348055 16.13457078 28.83231999 16.13037109 30.68115234 C16.1250154 33.49191687 16.13033401 36.30252163 16.13671875 39.11328125 C16.13605788 40.91927118 16.13477652 42.72526102 16.1328125 44.53125 C16.13483673 45.36168823 16.13686096 46.19212646 16.13894653 47.04772949 C16.08843559 59.77777733 16.08843559 59.77777733 13.5 65.0625 C10.66425729 67.2602006 9.90067964 67.31082915 6.4375 67.125 C3.14924683 66.55266037 2.27779693 66.31252154 0 63.75 C-1.60183717 59.34494779 -2.12592642 55.28894584 -2.14526367 50.61474609 C-2.15164352 49.56370697 -2.15802338 48.51266785 -2.16459656 47.42977905 C-2.16570938 46.30568634 -2.1668222 45.18159363 -2.16796875 44.0234375 C-2.17129715 42.86123688 -2.17462555 41.69903625 -2.17805481 40.50161743 C-2.18311081 38.04893387 -2.18546355 35.59624345 -2.18530273 33.14355469 C-2.18749589 29.38204752 -2.20568412 25.62083055 -2.22460938 21.859375 C-2.22754217 19.4765635 -2.22952773 17.09375061 -2.23046875 14.7109375 C-2.23765427 13.58279633 -2.24483978 12.45465515 -2.25224304 11.29232788 C-2.24916641 10.24759308 -2.24608978 9.20285828 -2.24291992 8.12646484 C-2.24434494 7.2066684 -2.24576996 6.28687195 -2.24723816 5.33920288 C-2 3 -2 3 0 0 Z " fill="#050404" transform="translate(144,199)"/>
<path d="M0 0 C5.35758763 -0.82424425 8.84865859 0.92244368 13.07421875 4.01171875 C16.7650778 7.82236227 16.79835673 11.87249966 17 17 C17.04326416 18.03302246 17.04326416 18.03302246 17.08740234 19.08691406 C17.4487101 29.24294668 16.99030162 39.36972541 16.25 49.5 C16.18844727 50.48516602 16.12689453 51.47033203 16.06347656 52.48535156 C15.49205173 59.27368886 15.49205173 59.27368886 13.203125 62.65234375 C10.6389469 64.22085695 9.46066186 64.43258273 6.5 64.0625 C5.7471875 63.99160156 4.994375 63.92070312 4.21875 63.84765625 C0.81777079 62.54833849 -0.12103542 61.15652458 -2 58 C-2.58175293 54.11591058 -2.51249616 50.26830013 -2.4609375 46.34765625 C-2.46002106 45.21476669 -2.45910461 44.08187714 -2.4581604 42.91465759 C-2.45212519 40.52159429 -2.43638177 38.12853851 -2.41162109 35.7355957 C-2.37516755 32.07930546 -2.37060153 28.42403096 -2.37109375 24.76757812 C-2.36126009 22.44009544 -2.34960201 20.1126196 -2.3359375 17.78515625 C-2.33371185 16.69437271 -2.33148621 15.60358917 -2.32919312 14.47975159 C-2.26437536 9.27547955 -2.1023802 4.86064011 0 0 Z " fill="#080807" transform="translate(295,190)"/>
<path d="M0 0 C0.98935547 -0.01546875 1.97871094 -0.0309375 2.99804688 -0.046875 C7.45957083 -0.02287218 10.29643752 0.05858854 14.21484375 2.31640625 C16.0625 4.5 16.0625 4.5 16.6875 7.9375 C15.88265147 12.5251366 14.78126798 13.71798497 11.0625 16.5 C7.7092261 17.17993848 4.47148615 17.10869231 1.0625 17 C-0.27167969 17.00386719 -0.27167969 17.00386719 -1.6328125 17.0078125 C-6.49828542 16.9351935 -10.02942795 16.71470443 -13.9375 13.5 C-15.48336876 10.40826248 -15.23109521 7.90570448 -14.9375 4.5 C-11.53540459 -1.09057783 -5.8300459 -0.0907989 0 0 Z " fill="#F0ECE6" transform="translate(190.9375,280.5)"/>
<path d="M0 0 C0.33 0.99 0.66 1.98 1 3 C-1.64 3.66 -4.28 4.32 -7 5 C-7.33 3.68 -7.66 2.36 -8 1 C-5.07175348 0.02391783 -3.04386724 -0.08226668 0 0 Z " fill="#EDE9E3" transform="translate(178,272)"/>
<path d="M0 0 C2.475 0.99 2.475 0.99 5 2 C5.33 1.34 5.66 0.68 6 0 C6.33 0.99 6.66 1.98 7 3 C2.25 6 2.25 6 0 6 C0 4.02 0 2.04 0 0 Z " fill="#F9F3EC" transform="translate(177,285)"/>
<path d="M0 0 C0.66 0 1.32 0 2 0 C2 0.66 2 1.32 2 2 C4.475 2.99 4.475 2.99 7 4 C6.01 4.33 5.02 4.66 4 5 C3.67 5.66 3.34 6.32 3 7 C3 6.01 3 5.02 3 4 C2.34 4 1.68 4 1 4 C0.67 2.68 0.34 1.36 0 0 Z " fill="#E5E2DB" transform="translate(140,194)"/>
</svg>
